<svg xmlns="http://www.w3.org/2000/svg" width="128" height="128" viewBox="0 0 128 128" role="img" aria-labelledby="title desc">
  <title id="title">Lantern Duelist</title>
  <desc id="desc">A nimble masked fighter in a flowing teal cloak, holding two curved silver blades in three-quarter view.</desc>
  <defs>
    <linearGradient id="cloak" x1="0" y1="0" x2="1" y2="1">
      <stop stop-color="#64c4b2"/><stop offset=".45" stop-color="#247e79"/><stop offset="1" stop-color="#13464c"/>
    </linearGradient>
    <linearGradient id="blade" x1="0" y1="0" x2="1" y2="1">
      <stop stop-color="#f2f9e7"/><stop offset=".5" stop-color="#c6e1d7"/><stop offset="1" stop-color="#789b9b"/>
    </linearGradient>
    <linearGradient id="gold" x1="0" y1="0" x2="1" y2="1">
      <stop stop-color="#ecd79a"/><stop offset="1" stop-color="#98723f"/>
    </linearGradient>
  </defs>
  <ellipse cx="66" cy="112" rx="35" ry="8" fill="#14262b" opacity=".25"/>
  <g stroke="#20383c" stroke-width="2" stroke-linejoin="round" stroke-linecap="round">
    <path d="M53 43 46 44 36 59 22 73 26 84 40 89 53 77 67 76 74 61Z" fill="url(#cloak)"/>
    <path d="M48 47 37 65 26 80 40 84 52 73 64 70Z" fill="#2c8b83" stroke="none"/>
    <path d="m45 54-7 20-8 7m20-18-9 17" fill="none" stroke="#86d1b9" stroke-width="1.5"/>
    <path d="M48 75 64 78 61 94 51 105 41 101 49 91Z" fill="#314b4c"/>
    <path d="m63 78 14-4 7 19-4 14-12 2-2-19Z" fill="#203d42"/>
    <path d="m43 99 11 5-2 6-16 4-7-5 6-5Z" fill="#425e5b"/>
    <path d="m70 103 11-2 10 8-3 6-16 4-8-5Z" fill="#314e50"/>
    <path d="m34 108 14 3m22 2 15-3" fill="none" stroke="#80a196"/>
    <path d="M51 46 67 41 80 49 79 72 63 83 49 73Z" fill="#547974"/>
    <path d="M67 41 80 49 79 72 63 83 65 60Z" fill="#335553" stroke="none"/>
    <path d="m53 48 13 8 12-5-1 8-14 8-11-8Z" fill="#194c50"/>
    <path d="m55 48 12 8 9-5" fill="none" stroke="#88c7b1" stroke-width="1.5"/>
    <path d="m51 70 12 5 17-7-1 7-16 8-13-7Z" fill="#694e37"/>
    <path d="m62 73 6-2 3 6-6 3-5-3Z" fill="url(#gold)"/>
    <path d="m66 60 5 3-8 5-5-3Z" fill="url(#gold)" stroke-width="1.5"/>
    <path d="M51 48 41 51 34 61 42 69 53 61 60 52Z" fill="#2e6764"/>
    <path d="m38 56 7 7-4 5-7-7Z" fill="#90a69a"/>
    <path d="M76 46 87 51 92 65 83 70 78 58 72 53Z" fill="#2f6663"/>
    <path d="m82 58 8-3 3 10-9 5Z" fill="#839e94"/>
    <path d="m40 62 4-5 6 3 2 5-6 5-6-3Z" fill="#d3b48c"/>
    <path d="m85 65 6-4 7 4-1 6-6 3-7-4Z" fill="#c4a47e"/>
    <path d="M56 33 73 29 78 37 76 48 65 54 54 47Z" fill="#d2b792"/>
    <path d="m66 35 12 2-2 11-11 6-1-10Z" fill="#9c8064" stroke="none"/>
    <path d="m55 40 11 5 11-5-1 9-11 6-10-7Z" fill="#233c42"/>
    <path d="m58 39 5 2m6-1 4-2" fill="none" stroke="#ffda8e" stroke-width="2.5"/>
    <path d="M48 35 51 24 64 17 74 21 81 32 75 39 68 29 58 30 54 41Z" fill="url(#cloak)"/>
    <path d="M64 17 74 21 81 32 75 39 68 29 63 26Z" fill="#267a75" stroke="none"/>
    <path d="m52 31 6-6 6-3" fill="none" stroke="#a1dbc2" stroke-width="1.5"/>
    <path d="m55 39 3-9 10-1 7 10" fill="none" stroke="#dbbd76" stroke-width="1.5"/>
    <path d="M76 46 73 56 86 67 91 60 86 50Z" fill="#1a5658"/>
    <path d="m74 50 11 10" fill="none" stroke="#6cb6a4" stroke-width="1.5"/>
    <path d="m43 61-6-9-5 3 6 10Z" fill="#634c3c"/>
    <path d="m31 57 12-9 3 3-12 9Z" fill="url(#gold)"/>
    <path d="M36 52 21 29 14 15 14 31 29 55 34 58Z" fill="url(#blade)"/>
    <path d="M14 15 21 29 36 52" fill="none" stroke="#f3f6df" stroke-width="1.5"/>
    <path d="m17 32 16 23" fill="none" stroke="#769792" stroke-width="1.5"/>
    <path d="m91 73 4-11 5 1-3 12Z" fill="#624a36"/>
    <path d="m87 63 14 6 2-4-15-6Z" fill="url(#gold)"/>
    <path d="M95 61 107 39 115 20 116 36 108 52 101 65Z" fill="url(#blade)"/>
    <path d="m115 20-8 19-12 22" fill="none" stroke="#f3f6df" stroke-width="1.5"/>
    <path d="m115 36-16 26" fill="none" stroke="#6f9491" stroke-width="1.5"/>
    <path d="m56 80 6 3-4 8-6-3Zm14 2 6-3 5 10-7 3Z" fill="#86a599" stroke-width="1.5"/>
  </g>
</svg>
