<svg xmlns="http://www.w3.org/2000/svg" width="128" height="128" viewBox="0 0 128 128" role="img" aria-labelledby="title desc">
  <title id="title">Lantern faction crest</title>
  <desc id="desc">A bronze lantern with glowing amber glass on a dark teal medallion.</desc>
  <defs>
    <linearGradient id="bronze" x1="0" y1="0" x2="0.8" y2="1">
      <stop offset="0" stop-color="#e0b671"/>
      <stop offset="0.45" stop-color="#aa713b"/>
      <stop offset="1" stop-color="#5b3828"/>
    </linearGradient>
    <linearGradient id="glass" x1="0" y1="0" x2="0" y2="1">
      <stop offset="0" stop-color="#fff2ae"/>
      <stop offset="0.47" stop-color="#ffc353"/>
      <stop offset="1" stop-color="#b76726"/>
    </linearGradient>
    <radialGradient id="teal" cx="0.5" cy="0.42" r="0.62">
      <stop offset="0" stop-color="#276567"/>
      <stop offset="1" stop-color="#102f35"/>
    </radialGradient>
  </defs>
  <path d="M64 7 72 14 85 12 92 23 105 26 108 39 119 47 116 60 121 72 114 83 114 97 101 102 94 114 80 114 68 121 56 116 43 118 34 107 21 103 20 90 10 81 14 68 8 56 15 45 16 31 29 26 36 15 50 15Z" fill="#13383d" stroke="#392b24" stroke-width="2.5" stroke-linejoin="round"/>
  <circle cx="64" cy="64" r="48" fill="url(#bronze)" stroke="#ebc181" stroke-width="1.5"/>
  <circle cx="64" cy="64" r="42.5" fill="url(#teal)" stroke="#503729" stroke-width="3"/>
  <circle cx="64" cy="64" r="39.5" fill="none" stroke="#598280" stroke-width="1" opacity="0.75"/>
  <g fill="#d6a35e" stroke="#53372b" stroke-width="1.2">
    <path d="m64 12 3 5-3 5-3-5Z"/>
    <path d="m64 106 3 5-3 5-3-5Z"/>
    <path d="m12 64 5-3 5 3-5 3Z"/>
    <path d="m106 64 5-3 5 3-5 3Z"/>
  </g>
  <g fill="none" stroke="url(#bronze)" stroke-width="3" stroke-linecap="round">
    <path d="M42 92c-12-7-17-19-16-31M86 92c12-7 17-19 16-31"/>
    <path d="m31 76-6-1m10 9-7 1m69-10 6-1m-10 10 7 1"/>
  </g>
  <path d="M56 35v-5a8 8 0 0 1 16 0v5" fill="none" stroke="#3d3027" stroke-width="7"/>
  <path d="M56 35v-5a8 8 0 0 1 16 0v5" fill="none" stroke="url(#bronze)" stroke-width="4"/>
  <path d="m48 44 7-10h18l7 10 6 5H42Z" fill="url(#bronze)" stroke="#3e3026" stroke-width="2.5" stroke-linejoin="round"/>
  <path d="M54 38h20l3 4H51Z" fill="#edc485" opacity="0.75"/>
  <path d="M44 49h40l-5 39H49Z" fill="url(#glass)" stroke="#3e3026" stroke-width="3" stroke-linejoin="round"/>
  <path d="M50 54h7v28h-4ZM64 54h7l-2 28h-5Z" fill="#fff5ba" opacity="0.25"/>
  <path d="M64 82c-9 0-11-9-6-15 1 4 2 5 4 6-3-9 5-10 5-18 9 10 3 13 5 16 2-1 2-3 3-4 4 9-2 15-11 15Z" fill="#ffdb71"/>
  <path d="M64 81c-5 0-6-5-3-9 0 3 1 4 3 5-1-5 3-7 3-10 5 7 3 14-3 14Z" fill="#fff5c4"/>
  <g fill="url(#bronze)" stroke="#483226" stroke-width="1.5" stroke-linejoin="round">
    <path d="M44 49h6l3 39h-5Z"/>
    <path d="M61 49h6v39h-6Z"/>
    <path d="M78 49h6l-4 39h-5Z"/>
    <path d="M47 87h34l4 7H43Z"/>
    <path d="M52 94h24v5H52Z"/>
  </g>
  <path d="M45 49h38M46 91h36M54 97h20" fill="none" stroke="#e5b46c" stroke-width="1.5" stroke-linecap="round"/>
  <path d="M56 104h16" fill="none" stroke="#bd8b4d" stroke-width="2" stroke-linecap="round"/>
  <g fill="#d3a160">
    <circle cx="29" cy="40" r="1.5"/>
    <circle cx="99" cy="40" r="1.5"/>
    <circle cx="36" cy="100" r="1.5"/>
    <circle cx="92" cy="100" r="1.5"/>
  </g>
</svg>
